<svg width="31" height="31" viewBox="0 0 31 31" fill="none" xmlns="http://www.w3.org/2000/svg">
<path d="M26.6541 11.2902H19.4494V4.06878C19.4494 1.8216 17.6146 0 15.3683 0C13.1226 0 11.2885 1.8216 11.2885 4.06878V11.2909H4.06786C1.82222 11.2902 0 13.1118 0 15.359C0 17.6068 1.82222 19.4284 4.06786 19.4284H11.2885V26.6512C11.2885 28.8984 13.1226 30.72 15.3683 30.72C17.6146 30.72 19.4494 28.8984 19.4494 26.6512V19.4278L26.6541 19.4291C28.8998 19.4291 30.7207 17.6062 30.7207 15.3583C30.72 13.1118 28.8991 11.2902 26.6541 11.2902Z" fill="#FAFAFA"/>
</svg>
